<?xml version="1.0" encoding="UTF-8"?>
<svg width="250px" height="166px" viewBox="0 0 250 166" version="1.1" xmlns="http://www.w3.org/2000/svg" xmlns:xlink="http://www.w3.org/1999/xlink">
    <title>Adapteurs de modèles</title>
    <g id="Adapteurs-de-modèles" stroke="none" stroke-width="1" fill="none" fill-rule="evenodd">
        <g id="undraw_abstract_re_l9xy" transform="translate(28.000000, 3.000000)" fill-rule="nonzero">
            <polygon id="Path" fill="#FFB6B6" points="147.418663 155.734687 144.133166 155.734472 142.570138 143.06221 147.419093 143.062425"></polygon>
            <path d="M148.25643,158.919388 L137.662852,158.918995 L137.662852,158.785003 C137.663013,156.507838 139.508997,154.661881 141.786161,154.661754 L141.786424,154.661754 L148.256619,154.662016 L148.25643,158.919388 Z" id="Path" fill="#2F2E41"></path>
            <polygon id="Path" fill="#FFB6B6" points="172.268105 152.896353 169.140974 153.903919 163.766641 142.321738 168.382022 140.834562"></polygon>
            <path d="M174.042391,155.67061 L163.959271,158.919388 L163.918175,158.791853 C163.219897,156.624389 164.410741,154.301217 166.578119,153.602672 L166.578368,153.602591 L172.736794,151.61837 L174.042391,155.67061 Z" id="Path" fill="#2F2E41"></path>
            <circle id="Oval" fill="#387ED1" cx="173.911732" cy="108.365521" r="4.10241414"></circle>
            <path d="M179.283622,115.850464 C179.209742,115.890256 179.136645,115.927559 179.063496,115.96478 L170.401732,99.8820463 C170.473072,99.8414578 170.54444,99.8009489 170.61833,99.7611576 C175.061109,97.3696141 180.601417,99.0318211 182.993912,103.474088 C185.386406,107.916355 183.725385,113.457019 179.283631,115.850464 L179.283622,115.850464 Z" id="Path" fill="#3F3D56"></path>
            <path d="M171.285632,107.679924 L170.07499,90.8831098 L170.305252,85.2769353 L165.586531,86.3268825 L167.324651,108.336132 C166.778535,109.461653 167.164333,110.8178 168.221108,111.487328 C169.277882,112.156857 170.668879,111.926413 171.453282,110.951861 C172.237685,109.977308 172.165535,108.5692 171.285632,107.679924 L171.285632,107.679924 Z" id="Path" fill="#FFB7B7"></path>
            <path d="M149.932341,92.8742626 L149.632303,87.2464863 L146.603922,84.7859265 L146.185669,90.1949391 L135.037051,103.084335 C133.745708,103.291226 132.842155,104.472599 132.980628,105.773059 C133.119101,107.073519 134.251157,108.038141 135.557112,107.968472 C136.863067,107.898803 137.886071,106.819216 137.8854,105.511404 C137.8854,105.478296 137.881747,105.446122 137.880458,105.413336 L149.932341,92.8742626 Z" id="Path" fill="#FFB7B7"></path>
            <path d="M150.475348,91.0728134 L140.960481,103.141815 L137.737299,99.7037549 L144.398542,90.0342097 L148.572167,71.7003438 C148.79638,71.224905 149.204395,70.8611634 149.702356,70.6927922 C150.191961,70.5249226 150.728796,70.5634925 151.189375,70.7996299 L151.243348,70.8269861 L150.475348,91.0728134 Z" id="Path" fill="#387ED1"></path>
            <path d="M166.829209,102.497179 L163.806724,81.4875781 L163.811714,81.4681702 L166.91579,69.2657457 L167.206633,69.2319195 C168.94457,69.0402582 170.543001,70.2023302 170.896729,71.9146488 L171.126785,103.141815 L166.829209,102.497179 Z" id="Path" fill="#387ED1"></path>
            <path d="M167.782885,65.9710093 L152.073158,65.9710093 L152.073158,58.8732408 C152.07169,56.0659901 153.568498,53.4713551 155.999404,52.0673057 C158.43031,50.6632563 161.425733,50.6632563 163.856639,52.0673057 C166.287545,53.4713551 167.784352,56.0659901 167.782885,58.8732408 L167.782885,65.9710093 Z" id="Path" fill="#2F2E41"></path>
            <circle id="Oval" fill="#FFB7B7" transform="translate(159.747011, 59.763868) rotate(-61.336810) translate(-159.747011, -59.763868) " cx="159.747011" cy="59.7638675" r="6.42031801"></circle>
            <circle id="Oval" fill="#2F2E41" cx="162.846592" cy="50.0430143" r="4.27383369"></circle>
            <path d="M169.539359,60.1035293 L152.830254,60.1035293 L152.830254,60.0088924 C152.830254,55.6776839 156.578064,52.1540286 161.184805,52.1540286 C165.791547,52.1540286 169.539359,55.6776839 169.539359,60.0088924 L169.539359,60.1035293 Z" id="Path" fill="#2F2E41"></path>
            <path d="M148.212122,149.400976 L142.004298,148.957577 L141.996008,148.866716 C139.275451,119.167593 140.81916,99.5522503 146.34169,93.6291167 L147.899981,90.7140883 L147.046761,85.8082833 C144.76829,79.8067855 148.595189,75.4167754 148.884459,75.0977084 L150.118017,71.3971348 C150.292187,70.8764631 150.754784,70.5057777 151.300899,70.4492765 L168.064698,68.734864 L168.075609,68.8417769 L168.064698,68.734864 C168.439584,68.6965006 168.814065,68.8112547 169.103096,69.0530657 C169.392128,69.2948768 169.57118,69.6432228 169.59959,70.0189946 L169.601059,70.0387205 L169.595498,70.0577115 L163.484675,90.6362356 L164.020296,97.599967 L171.23237,147.43664 L165.021036,148.767672 L164.992288,148.673243 L153.531002,111.105756 L148.212122,149.400976 Z" id="Path" fill="#2F2E41"></path>
            <path d="M132.580209,119.794921 L1.50415148,119.794921 C0.733134401,119.794921 0.107439391,119.169226 0.107439391,118.398209 L0.107439391,1.50415148 C0.107439391,0.733134401 0.733134401,0.107439391 1.50415148,0.107439391 L132.580209,0.107439391 C133.351222,0.107439391 133.976921,0.733138323 133.976921,1.50415148 L133.976921,118.398209 C133.976921,119.169222 133.351222,119.794921 132.580209,119.794921 L132.580209,119.794921 Z" id="Path" fill="#FFFFFF"></path>
            <path d="M44.843558,5.2496584 L44.843558,35.4583404 L44.7820081,35.4583404 C36.4401109,35.4583404 29.6776671,28.6958966 29.6776671,20.3539994 C29.6776671,12.0121022 36.4401109,5.2496584 44.7820081,5.2496584 L44.843558,5.2496584 Z" id="Path" fill="#387ED1"></path>
            <path d="M41.4254877,12.0580561 L41.4254877,28.6499427 L41.3916808,28.6499427 C36.8099579,28.6499427 33.0957376,24.9357223 33.0957376,20.3539994 C33.0957376,15.7722765 36.8099579,12.0580561 41.3916808,12.0580561 L41.4254877,12.0580561 Z" id="Path" fill="#FFFFFF"></path>
            <polygon id="Path" fill="#3F3D56" points="67.1588592 60.3809378 21.5192505 60.3809378 21.5192505 20.1390841 29.6777681 20.1390841 29.6777681 20.5688417 21.9490081 20.5688417 21.9490081 59.9511802 67.1588592 59.9511802"></polygon>
            <circle id="Oval" fill="#387ED1" cx="73.3124289" cy="66.4129161" r="4.10241414"></circle>
            <circle id="Oval" fill="#3F3D56" cx="111.539465" cy="106.131738" r="4.10241414"></circle>
            <circle id="Oval" fill="#387ED1" cx="21.6593128" cy="59.8863491" r="4.10241414"></circle>
            <polygon id="Path" fill="#3F3D56" points="67.1588592 60.2593164 77.4148086 60.2593164 77.4148086 50.003367 56.9026949 50.003367 56.9026949 70.5152658 67.1588592 70.5152658"></polygon>
            <rect id="Rectangle" fill="#E4E4E4" x="89.1626635" y="8.60617887" width="44.9400751" height="5.59419934"></rect>
            <rect id="Rectangle" fill="#E4E4E4" x="89.1626635" y="20.7269473" width="44.9400751" height="5.59419934"></rect>
            <path d="M120.676659,39.9337003 C120.676659,40.0176169 120.674837,40.0996641 120.672924,40.1817134 L102.406004,40.1817134 C102.404091,40.0996641 102.402271,40.0176169 102.402271,39.9337003 C102.402271,34.8873676 106.493132,30.7965066 111.539465,30.7965066 C116.585798,30.7965066 120.676659,34.8873676 120.676659,39.9337003 Z" id="Path" fill="#E4E4E4"></path>
            <path d="M120.676659,104.951359 C120.676659,105.035274 120.674837,105.117323 120.672924,105.199372 L102.406004,105.199372 C102.404091,105.117323 102.402271,105.035274 102.402271,104.951359 C102.402271,99.9050263 106.493132,95.8141653 111.539465,95.8141653 C116.585798,95.8141653 120.676659,99.9050263 120.676659,104.951359 Z" id="Path" fill="#E4E4E4"></path>
            <rect id="Rectangle" fill="#3F3D56" x="111.324574" y="49.0708425" width="1" height="46.7196625"></rect>
            <path d="M58.7675076,100.537538 C58.7673242,108.237437 52.5433812,114.488894 44.843558,114.52304 L44.843558,86.5520367 C52.5433812,86.5861829 58.7673242,92.8376394 58.7675076,100.537538 L58.7675076,100.537538 Z" id="Path" fill="#387ED1"></path>
            <path d="M132.983893,120.332118 L1.33370533,120.332118 C0.597461588,120.332118 0,119.734609 0,118.998365 L0,1.3337526 C0,0.597508831 0.597461588,0 1.33370533,0 L132.983893,0 C133.720137,0 134.3176,0.597508483 134.3176,1.3337526 L134.3176,118.998365 C134.3176,119.73461 133.720137,120.332118 132.983893,120.332118 Z M1.33370533,0.429757564 C0.834686448,0.429757564 0.429757564,0.834733692 0.429757564,1.3337526 L0.429757564,118.998365 C0.429757564,119.497384 0.834686448,119.90236 1.33370533,119.90236 L132.983893,119.90236 C133.482909,119.90236 133.887843,119.497381 133.887843,118.998365 L133.887843,1.3337526 C133.887843,0.834736776 133.482909,0.429757564 132.983893,0.429757564 L1.33370533,0.429757564 Z" id="Shape" fill="#3F3D56"></path>
            <path d="M44.6286857,35.6740744 L44.6286857,5.03391366 L44.844424,5.03475169 C53.2810966,5.06848838 60.1025332,11.9172571 60.1025332,20.3539973 C60.1025332,28.7907374 53.2810966,35.6395061 44.844424,35.6732428 L44.6286857,35.6740744 Z M45.0584432,5.46692234 L45.0584432,35.2410636 C53.1725333,35.0902879 59.6714529,28.4694838 59.6714529,20.353993 C59.6714529,12.2385022 53.1725333,5.61769802 45.0584432,5.46692234 Z" id="Shape" fill="#3F3D56"></path>
            <path d="M45.0584497,114.737925 L44.7820081,114.737925 C36.9393653,114.737925 30.5816471,108.380207 30.5816471,100.537564 C30.5816471,92.6949213 36.9393653,86.3372031 44.7820081,86.3372031 L45.0584497,86.3372031 L45.0584497,114.737925 Z M44.6286857,86.7677987 C37.0836426,86.8517857 31.0113463,92.9920514 31.0113463,100.537562 C31.0113463,108.083072 37.0836426,114.223338 44.6286857,114.307325 L44.6286857,86.7677987 Z" id="Shape" fill="#3F3D56"></path>
            <path d="M111.539452,49.2857213 C106.462358,49.3129173 102.301597,45.2634408 102.191175,40.1874743 L102.1853,39.9668239 L120.893603,39.9668239 L120.887728,40.1874743 C120.777338,45.2634539 116.616559,49.3129485 111.539452,49.2857213 Z M102.629327,40.3965815 C102.87556,45.1379171 106.791727,48.8559833 111.539452,48.8559833 C116.287177,48.8559833 120.203345,45.1379171 120.449577,40.3965815 L102.629327,40.3965815 Z" id="Shape" fill="#3F3D56"></path>
            <rect id="Rectangle" fill="#3F3D56" x="0.214878782" y="79.934907" width="133.887843" height="1"></rect>
            <rect id="Rectangle" fill="#3F3D56" x="0.214878782" y="39.9668239" width="133.887843" height="1"></rect>
            <rect id="Rectangle" fill="#3F3D56" x="89.258579" y="0.214878782" width="1" height="119.90236"></rect>
            <rect id="Rectangle" fill="#3F3D56" x="44.6286599" y="0.214878782" width="1" height="119.90236"></rect>
            <circle id="Oval" fill="#387ED1" cx="31.3559263" cy="100.16459" r="4.10241414"></circle>
            <path d="M194.225884,159.440056 L112.357068,159.440056 C112.238394,159.440056 112.142189,159.343852 112.142189,159.225178 C112.142189,159.106503 112.238394,159.010299 112.357068,159.010299 L194.225884,159.010299 C194.344558,159.010299 194.440763,159.106503 194.440763,159.225178 C194.440763,159.343852 194.344558,159.440056 194.225884,159.440056 Z" id="Path" fill="#CACACA"></path>
            <path d="M123.430724,159.006949 C124.640143,155.109587 123.465266,150.677227 120.706671,147.715443 C119.928693,146.878528 119.022279,146.170979 118.021546,145.619427 C117.881839,145.54333 117.707546,145.580011 117.610362,145.705965 C117.513179,145.831918 117.521906,146.009816 117.630952,146.125651 L118.183341,146.723388 L118.183341,146.267557 C117.114091,147.265113 115.165072,146.504139 114.970779,145.08602 C114.891316,144.337579 115.162904,143.594525 115.706276,143.073732 C116.292304,142.52296 117.122743,142.31689 117.898274,142.529799 C118.712272,142.727646 119.399094,143.271466 119.778324,144.018406 C120.122882,144.777304 120.155023,145.641298 119.867804,146.423699 C119.278243,148.14676 117.397179,148.956935 115.680663,148.550949 C113.928855,148.136616 112.673572,146.485105 112.616317,144.701469 C112.597982,142.93271 113.678455,141.338003 115.327959,140.699268 C117.166855,140.019858 119.163373,140.699133 120.716586,141.749329 C122.30077,142.861087 123.59592,144.335789 124.493849,146.050248 C125.407254,147.713471 125.927087,149.564004 126.013382,151.45957 C126.063438,153.018567 125.732363,154.789547 124.582672,155.928415 C124.307099,156.198735 123.98906,156.422032 123.641215,156.589414 L123.966576,157.146038 C128.123998,154.740319 130.478961,150.115584 129.979168,145.338361 C129.822842,143.930464 129.425213,142.560007 128.803714,141.287078 C128.621563,140.914411 128.065438,141.240793 128.24709,141.612438 C129.296346,143.7714 129.648545,146.203135 129.25494,148.571073 C128.668901,151.945551 126.611526,154.884197 123.641215,156.589423 C123.277865,156.798145 123.59739,157.327136 123.966576,157.146047 C125.702435,156.294592 126.459578,154.367688 126.626468,152.542563 C126.817011,150.458751 126.275053,148.294575 125.39738,146.415224 C124.482224,144.427993 123.083606,142.701815 121.329351,141.394455 C119.600969,140.133896 117.259738,139.300618 115.156586,140.077665 C113.275604,140.772623 111.908264,142.677582 111.971677,144.701473 C112.035324,146.732738 113.437926,148.643659 115.43136,149.15342 C117.419778,149.661899 119.594265,148.785307 120.395812,146.841135 C120.778823,145.940882 120.806223,144.928885 120.472485,144.009226 C120.11498,143.107863 119.397846,142.396376 118.493684,142.046008 C117.601871,141.671848 116.586144,141.738003 115.750397,142.22468 C114.98669,142.712442 114.47275,143.508115 114.342191,144.40484 C114.198388,145.277175 114.526721,146.160503 115.205385,146.727127 C115.867144,147.25864 116.731639,147.466966 117.562866,147.295232 C117.966645,147.205189 118.338546,147.007594 118.639163,146.723384 C118.762111,146.596313 118.762111,146.394628 118.639163,146.267557 L118.086774,145.66982 L117.696181,146.176051 C121.075315,148.031125 123.190337,151.804075 123.261541,155.62988 C123.283122,156.715764 123.130375,157.798079 122.80912,158.835579 C122.685887,159.232698 123.307968,159.402547 123.43073,159.006949 L123.430724,159.006949 Z" id="Path" fill="#F0F0F0"></path>
        </g>
    </g>
</svg>